<svg width="75" height="17" viewBox="0 0 75 17" fill="none" xmlns="http://www.w3.org/2000/svg">
<g filter="url(#filter0_b_1_155)">
<path d="M13.7133 14.2047C12.447 12.9393 11.8143 11.3877 11.8143 9.5517C11.8143 7.7157 12.447 6.165 13.7133 4.8987C14.9787 3.6333 16.524 2.9997 18.3483 2.9997C20.1717 2.9997 21.7197 3.6333 22.9923 4.8987C24.264 6.165 24.9003 7.7157 24.9003 9.5517C24.9003 11.3877 24.264 12.942 22.9923 14.2137C21.7197 15.4737 20.1717 16.1037 18.3483 16.1037C16.524 16.1037 14.9787 15.471 13.7133 14.2047ZM68.2137 15.8517V10.9377L63.9117 3.2517H66.7197L69.4557 8.5077L72.1917 3.2517H74.9997L70.6797 10.9377V15.8517H68.2137ZM56.4723 15.8517V3.2517H58.9563V13.4757H63.7623V15.8517H56.4723ZM50.886 15.8517L46.386 9.9477V15.8517H43.902V3.2517H46.386V8.8137L50.706 3.2517H53.568L48.906 9.3717L53.748 15.8517H50.886ZM0 15.8517V3.2517H4.968C6.048 3.2517 6.957 3.5847 7.695 4.2507C8.433 4.9167 8.802 5.7663 8.802 6.7977C8.802 7.8417 8.406 8.6823 7.614 9.3177C8.7183 9.954 9.27 10.9143 9.27 12.1977C9.27 13.266 8.892 14.1417 8.136 14.8257C7.38 15.5097 6.4503 15.8517 5.346 15.8517H0ZM29.4687 11.205C28.2033 9.9387 27.5697 8.388 27.5697 6.552C27.5697 4.716 28.2033 3.1653 29.4687 1.899C30.735 0.6327 32.2803 0 34.1037 0C35.928 0 37.476 0.6327 38.7477 1.899C40.0203 3.1653 40.6557 4.716 40.6557 6.552C40.6557 8.388 40.0203 9.9423 38.7477 11.214C37.476 12.474 35.928 13.104 34.1037 13.104C32.2803 13.104 30.735 12.4713 29.4687 11.205Z" fill="white"/>
</g>
<g filter="url(#filter1_b_1_155)">
<path d="M29.83 15.852H38.83" stroke="white" stroke-width="1.5" stroke-linecap="round"/>
</g>
<defs>
<filter id="filter0_b_1_155" x="-10" y="-10" width="94.9997" height="36.1037" filterUnits="userSpaceOnUse" color-interpolation-filters="sRGB">
<feFlood flood-opacity="0" result="BackgroundImageFix"/>
<feGaussianBlur in="BackgroundImageFix" stdDeviation="5"/>
<feComposite in2="SourceAlpha" operator="in" result="effect1_backgroundBlur_1_155"/>
<feBlend mode="normal" in="SourceGraphic" in2="effect1_backgroundBlur_1_155" result="shape"/>
</filter>
<filter id="filter1_b_1_155" x="19.08" y="5.10199" width="30.5" height="21.5" filterUnits="userSpaceOnUse" color-interpolation-filters="sRGB">
<feFlood flood-opacity="0" result="BackgroundImageFix"/>
<feGaussianBlur in="BackgroundImageFix" stdDeviation="5"/>
<feComposite in2="SourceAlpha" operator="in" result="effect1_backgroundBlur_1_155"/>
<feBlend mode="normal" in="SourceGraphic" in2="effect1_backgroundBlur_1_155" result="shape"/>
</filter>
</defs>
</svg>
